<svg id="Icons" height="512" viewBox="0 0 74 74" width="512" xmlns="http://www.w3.org/2000/svg"><path d="m62.343 61.142-1.443-1.383c.649-.678 1.276-1.393 1.863-2.125l1.56 1.252c-.623.777-1.292 1.536-1.98 2.256z"/><path d="m37 72a34.957 34.957 0 1 1 34.567-29.472l-1.974-.316a33 33 0 1 0 -32.593 27.788 32.813 32.813 0 0 0 18.576-5.716l1.124 1.652a34.8 34.8 0 0 1 -19.7 6.064z"/><path d="m68.23 52.815-1.781-.91c.46-.9.866-1.8 1.21-2.671l1.862.732c-.368.934-.802 1.893-1.291 2.849z"/><path d="m37 64a27 27 0 1 1 27-27 27.03 27.03 0 0 1 -27 27zm0-52a25 25 0 1 0 25 25 25.028 25.028 0 0 0 -25-25z"/><path d="m34.7 38a1 1 0 0 1 -1-1v-14a1 1 0 0 1 1.529-.849l11.242 7a1 1 0 0 1 0 1.7l-11.242 7a1.006 1.006 0 0 1 -.529.149zm1-13.2v10.4l8.35-5.2z"/><path d="m28.061 43.538a1 1 0 0 1 -.642-1.768l5.718-4.77-5.718-4.77a1 1 0 0 1 1.281-1.536l6.638 5.538a1 1 0 0 1 0 1.536l-6.638 5.538a1 1 0 0 1 -.639.232z"/><path d="m34.7 52a1 1 0 0 1 -1-1v-14a1 1 0 0 1 1.529-.849l11.242 7a1 1 0 0 1 0 1.7l-11.242 7a1.006 1.006 0 0 1 -.529.149zm1-13.2v10.4l8.35-5.2z"/></svg>